<svg width="25" height="25" viewBox="0 0 25 25" fill="none" xmlns="http://www.w3.org/2000/svg">
<path d="M12.3333 0.333374C5.70631 0.333374 0.333313 5.70637 0.333313 12.3334C0.333313 18.9604 5.70631 24.3334 12.3333 24.3334C18.9603 24.3334 24.3333 18.9604 24.3333 12.3334C24.3333 5.70637 18.9603 0.333374 12.3333 0.333374ZM7.82931 5.73637C8.67131 5.73637 9.23231 6.29737 9.23231 7.04537C9.23231 7.79337 8.67131 8.35437 7.73631 8.35437C6.89431 8.35537 6.33331 7.79337 6.33331 7.04537C6.33331 6.29737 6.89431 5.73637 7.82931 5.73637ZM9.33331 17.3334H6.33331V9.33337H9.33331V17.3334ZM19.3333 17.3334H16.5093V12.9614C16.5093 11.7524 15.7563 11.4734 15.4743 11.4734C15.1923 11.4734 14.2503 11.6594 14.2503 12.9614C14.2503 13.1474 14.2503 17.3334 14.2503 17.3334H11.3333V9.33337H14.2513V10.4494C14.6273 9.79837 15.3803 9.33337 16.7923 9.33337C18.2043 9.33337 19.3333 10.4494 19.3333 12.9614V17.3334Z" fill="white"/>
</svg>
